<mxfile host="65bd71144e">
    <diagram id="1B4BwyEKloxhKzwjIDt4" name="Page-1">
        <mxGraphModel dx="2266" dy="1059" grid="1" gridSize="10" guides="1" tooltips="1" connect="1" arrows="1" fold="1" page="1" pageScale="1" pageWidth="850" pageHeight="1100" math="0" shadow="0">
            <root>
                <mxCell id="0"/>
                <mxCell id="1" parent="0"/>
                <mxCell id="6" value="" style="edgeStyle=none;html=1;entryX=0;entryY=0.5;entryDx=0;entryDy=0;" edge="1" parent="1" source="2" target="3">
                    <mxGeometry relative="1" as="geometry">
                        <mxPoint x="600" y="80" as="targetPoint"/>
                    </mxGeometry>
                </mxCell>
                <mxCell id="9" value="" style="edgeStyle=none;html=1;fillColor=#6a00ff;strokeColor=#3700CC;" edge="1" parent="1" source="2">
                    <mxGeometry relative="1" as="geometry">
                        <mxPoint x="140" y="1080" as="targetPoint"/>
                        <Array as="points">
                            <mxPoint x="140" y="750"/>
                        </Array>
                    </mxGeometry>
                </mxCell>
                <mxCell id="2" value="" style="rounded=0;whiteSpace=wrap;html=1;" vertex="1" parent="1">
                    <mxGeometry x="80" y="50" width="120" height="60" as="geometry"/>
                </mxCell>
                <mxCell id="10" style="edgeStyle=none;html=1;fillColor=#0050ef;strokeColor=#001DBC;" edge="1" parent="1" source="3">
                    <mxGeometry relative="1" as="geometry">
                        <mxPoint x="740" y="1080" as="targetPoint"/>
                        <Array as="points">
                            <mxPoint x="740" y="250"/>
                        </Array>
                    </mxGeometry>
                </mxCell>
                <mxCell id="3" value="server&lt;br&gt;" style="rounded=0;whiteSpace=wrap;html=1;" vertex="1" parent="1">
                    <mxGeometry x="680" y="50" width="120" height="60" as="geometry"/>
                </mxCell>
                <mxCell id="4" value="browser" style="text;html=1;align=center;verticalAlign=middle;resizable=0;points=[];autosize=1;strokeColor=none;fillColor=none;" vertex="1" parent="1">
                    <mxGeometry x="105" y="65" width="70" height="30" as="geometry"/>
                </mxCell>
                <mxCell id="12" value="" style="endArrow=classic;html=1;" edge="1" parent="1">
                    <mxGeometry width="50" height="50" relative="1" as="geometry">
                        <mxPoint x="140" y="200" as="sourcePoint"/>
                        <mxPoint x="740" y="200" as="targetPoint"/>
                    </mxGeometry>
                </mxCell>
                <mxCell id="13" value="&lt;h4&gt;&lt;span style=&quot;background-color: rgb(23, 20, 29);&quot;&gt;&lt;br&gt;&lt;span style=&quot;font-family: system-ui, sans-serif; text-align: start;&quot;&gt;POST&lt;br&gt;&lt;/span&gt;&lt;span style=&quot;font-family: system-ui, sans-serif; text-align: start;&quot;&gt;https://studies.cs.helsinki.fi/exampleapp/new_note&lt;/span&gt;&lt;/span&gt;&lt;/h4&gt;" style="text;html=1;align=center;verticalAlign=middle;resizable=0;points=[];autosize=1;strokeColor=#005700;fillColor=none;fontColor=#ffffff;" vertex="1" parent="1">
                    <mxGeometry x="270" y="110" width="310" height="90" as="geometry"/>
                </mxCell>
                <mxCell id="15" value="&lt;h4&gt;&lt;span style=&quot;background-color: rgb(23, 20, 29);&quot;&gt;&lt;br&gt;&lt;span style=&quot;font-family: system-ui, sans-serif; text-align: start;&quot;&gt;Status Code: 302 Found(URL redirect)&lt;/span&gt;&lt;/span&gt;&lt;/h4&gt;" style="text;html=1;align=center;verticalAlign=middle;resizable=0;points=[];autosize=1;strokeColor=none;fillColor=none;fontColor=#FFFFFF;" vertex="1" parent="1">
                    <mxGeometry x="310" y="195" width="230" height="80" as="geometry"/>
                </mxCell>
                <mxCell id="17" value="" style="endArrow=classic;html=1;fontColor=#FFFFFF;jumpStyle=gap;dashed=1;dashPattern=12 12;" edge="1" parent="1">
                    <mxGeometry relative="1" as="geometry">
                        <mxPoint x="740" y="280" as="sourcePoint"/>
                        <mxPoint x="140" y="280" as="targetPoint"/>
                    </mxGeometry>
                </mxCell>
                <mxCell id="18" value="" style="edgeLabel;resizable=0;html=1;align=center;verticalAlign=middle;labelBackgroundColor=#17141d;strokeColor=default;fontColor=#FFFFFF;fillColor=none;" connectable="0" vertex="1" parent="17">
                    <mxGeometry relative="1" as="geometry"/>
                </mxCell>
                <mxCell id="19" value="" style="edgeLabel;resizable=0;html=1;align=left;verticalAlign=bottom;labelBackgroundColor=#17141d;strokeColor=default;fontColor=#FFFFFF;fillColor=none;" connectable="0" vertex="1" parent="17">
                    <mxGeometry x="-1" relative="1" as="geometry"/>
                </mxCell>
                <mxCell id="20" value="" style="edgeLabel;resizable=0;html=1;align=right;verticalAlign=bottom;labelBackgroundColor=#17141d;strokeColor=default;fontColor=#FFFFFF;fillColor=none;" connectable="0" vertex="1" parent="17">
                    <mxGeometry x="1" relative="1" as="geometry"/>
                </mxCell>
                <mxCell id="21" value="" style="endArrow=classic;html=1;" edge="1" parent="1">
                    <mxGeometry width="50" height="50" relative="1" as="geometry">
                        <mxPoint x="140" y="360" as="sourcePoint"/>
                        <mxPoint x="740" y="360" as="targetPoint"/>
                    </mxGeometry>
                </mxCell>
                <mxCell id="22" value="&lt;div style=&quot;display: flex; line-height: 20px; padding-left: 8px; gap: 12px; user-select: text;&quot; class=&quot;row&quot;&gt;&lt;div style=&quot;display: flex; overflow-wrap: anywhere; margin-inline-end: 14px;&quot; class=&quot;header-value&quot;&gt;&lt;span style=&quot;white-space: pre;&quot;&gt;&#9;&lt;/span&gt;&lt;div style=&quot;display: flex; overflow-wrap: anywhere; margin-inline-end: 14px;&quot; class=&quot;header-value&quot;&gt;&lt;br&gt;&lt;/div&gt;GET&amp;nbsp;&lt;span style=&quot;background-color: initial;&quot;&gt;&amp;nbsp;&lt;/span&gt;&lt;span style=&quot;background-color: initial;&quot;&gt;https://studies.cs.helsinki.fi/exampleapp/notes&lt;/span&gt;&lt;/div&gt;&lt;div&gt;&lt;br&gt;&lt;/div&gt;&lt;/div&gt;&lt;div style=&quot;display: flex; line-height: 20px; padding-left: 8px; gap: 12px; user-select: text;&quot; class=&quot;row&quot;&gt;&lt;/div&gt;" style="text;html=1;align=center;verticalAlign=middle;resizable=0;points=[];autosize=1;strokeColor=none;fillColor=none;fontColor=#FFFFFF;" vertex="1" parent="1">
                    <mxGeometry x="225" y="315" width="370" height="30" as="geometry"/>
                </mxCell>
                <mxCell id="24" value="" style="endArrow=classic;html=1;" edge="1" parent="1">
                    <mxGeometry width="50" height="50" relative="1" as="geometry">
                        <mxPoint x="140" y="530" as="sourcePoint"/>
                        <mxPoint x="740" y="530" as="targetPoint"/>
                    </mxGeometry>
                </mxCell>
                <mxCell id="25" value="&lt;span style=&quot;color: rgba(0, 0, 0, 0); font-family: monospace; font-size: 0px; text-align: start;&quot;&gt;%3CmxGraphModel%3E%3Croot%3E%3CmxCell%20id%3D%220%22%2F%3E%3CmxCell%20id%3D%221%22%20parent%3D%220%22%2F%3E%3CmxCell%20id%3D%222%22%20value%3D%22%26lt%3Bdiv%20style%3D%26quot%3Bdisplay%3A%20flex%3B%20line-height%3A%2020px%3B%20padding-left%3A%208px%3B%20gap%3A%2012px%3B%20user-select%3A%20text%3B%26quot%3B%20class%3D%26quot%3Brow%26quot%3B%26gt%3B%26lt%3Bdiv%20style%3D%26quot%3Bdisplay%3A%20flex%3B%20overflow-wrap%3A%20anywhere%3B%20margin-inline-end%3A%2014px%3B%26quot%3B%20class%3D%26quot%3Bheader-value%26quot%3B%26gt%3B%26lt%3Bspan%20style%3D%26quot%3Bwhite-space%3A%20pre%3B%26quot%3B%26gt%3B%26%239%3B%26lt%3B%2Fspan%26gt%3B%26lt%3Bdiv%20style%3D%26quot%3Bdisplay%3A%20flex%3B%20overflow-wrap%3A%20anywhere%3B%20margin-inline-end%3A%2014px%3B%26quot%3B%20class%3D%26quot%3Bheader-value%26quot%3B%26gt%3B%26lt%3Bbr%26gt%3B%26lt%3B%2Fdiv%26gt%3BGET%26amp%3Bnbsp%3B%26lt%3Bspan%20style%3D%26quot%3Bbackground-color%3A%20initial%3B%26quot%3B%26gt%3B%26amp%3Bnbsp%3B%26lt%3B%2Fspan%26gt%3B%26lt%3Bspan%20style%3D%26quot%3Bbackground-color%3A%20initial%3B%26quot%3B%26gt%3Bhttps%3A%2F%2Fstudies.cs.helsinki.fi%2Fexampleapp%2Fnotes%26lt%3B%2Fspan%26gt%3B%26lt%3B%2Fdiv%26gt%3B%26lt%3Bdiv%26gt%3B%26lt%3Bbr%26gt%3B%26lt%3B%2Fdiv%26gt%3B%26lt%3B%2Fdiv%26gt%3B%26lt%3Bdiv%20style%3D%26quot%3Bdisplay%3A%20flex%3B%20line-height%3A%2020px%3B%20padding-left%3A%208px%3B%20gap%3A%2012px%3B%20user-select%3A%20text%3B%26quot%3B%20class%3D%26quot%3Brow%26quot%3B%26gt%3B%26lt%3B%2Fdiv%26gt%3B%22%20style%3D%22text%3Bhtml%3D1%3Balign%3Dcenter%3BverticalAlign%3Dmiddle%3Bresizable%3D0%3Bpoints%3D%5B%5D%3Bautosize%3D1%3BstrokeColor%3Dnone%3BfillColor%3Dnone%3BfontColor%3D%23FFFFFF%3B%22%20vertex%3D%221%22%20parent%3D%221%22%3E%3CmxGeometry%20x%3D%22225%22%20y%3D%22315%22%20width%3D%22370%22%20height%3D%2230%22%20as%3D%22geometry%22%2F%3E%3C%2FmxCell%3E%3C%2Froot%3E%3C%2FmxGraphModel%3E&lt;/span&gt;" style="text;html=1;align=center;verticalAlign=middle;resizable=0;points=[];autosize=1;strokeColor=none;fillColor=none;fontColor=#FFFFFF;" vertex="1" parent="1">
                    <mxGeometry x="410" y="395" width="20" height="30" as="geometry"/>
                </mxCell>
                <mxCell id="26" value="&lt;div&gt;&lt;div&gt;&lt;div style=&quot;display: flex; line-height: 20px; padding-left: 8px; gap: 12px; user-select: text; margin-top: 2px; font-family: system-ui, sans-serif; text-align: start;&quot; class=&quot;row&quot;&gt;&lt;div style=&quot;&quot;&gt;&lt;span style=&quot;&quot;&gt;HTML document&lt;/span&gt;&lt;/div&gt;&lt;/div&gt;&lt;div style=&quot;display: flex; line-height: 20px; padding-left: 8px; gap: 12px; user-select: text; font-family: system-ui, sans-serif; text-align: start;&quot; class=&quot;row&quot;&gt;&lt;/div&gt;&lt;/div&gt;&lt;/div&gt;" style="text;html=1;align=center;verticalAlign=middle;resizable=0;points=[];autosize=1;strokeColor=none;fillColor=none;fontColor=default;labelBackgroundColor=default;" vertex="1" parent="1">
                    <mxGeometry x="370" y="395" width="120" height="40" as="geometry"/>
                </mxCell>
                <mxCell id="27" value="" style="endArrow=classic;html=1;fontColor=#FFFFFF;jumpStyle=gap;dashed=1;dashPattern=12 12;" edge="1" parent="1">
                    <mxGeometry relative="1" as="geometry">
                        <mxPoint x="740" y="440" as="sourcePoint"/>
                        <mxPoint x="140" y="440" as="targetPoint"/>
                    </mxGeometry>
                </mxCell>
                <mxCell id="28" value="" style="edgeLabel;resizable=0;html=1;align=center;verticalAlign=middle;labelBackgroundColor=#17141d;strokeColor=default;fontColor=#FFFFFF;fillColor=none;" connectable="0" vertex="1" parent="27">
                    <mxGeometry relative="1" as="geometry"/>
                </mxCell>
                <mxCell id="29" value="" style="edgeLabel;resizable=0;html=1;align=left;verticalAlign=bottom;labelBackgroundColor=#17141d;strokeColor=default;fontColor=#FFFFFF;fillColor=none;" connectable="0" vertex="1" parent="27">
                    <mxGeometry x="-1" relative="1" as="geometry"/>
                </mxCell>
                <mxCell id="30" value="" style="edgeLabel;resizable=0;html=1;align=right;verticalAlign=bottom;labelBackgroundColor=#17141d;strokeColor=default;fontColor=#FFFFFF;fillColor=none;" connectable="0" vertex="1" parent="27">
                    <mxGeometry x="1" relative="1" as="geometry"/>
                </mxCell>
                <mxCell id="31" value="&lt;div style=&quot;display: flex; line-height: 20px; padding-left: 8px; gap: 12px; user-select: text; margin-top: 2px; font-family: system-ui, sans-serif; text-align: start;&quot; class=&quot;row&quot;&gt;&lt;div style=&quot;word-break: break-all; display: flex; align-items: center; gap: 2px;&quot; class=&quot;header-value&quot;&gt;&lt;font style=&quot;&quot; color=&quot;#ffffff&quot;&gt;GET https://studies.cs.helsinki.fi/exampleapp/main.css&lt;/font&gt;&lt;/div&gt;&lt;div style=&quot;color: rgb(31, 31, 31);&quot;&gt;&lt;br&gt;&lt;/div&gt;&lt;/div&gt;&lt;div style=&quot;display: flex; line-height: 20px; padding-left: 8px; gap: 12px; user-select: text; color: rgb(31, 31, 31); font-family: system-ui, sans-serif; text-align: start; background-color: rgb(255, 255, 255);&quot; class=&quot;row&quot;&gt;&lt;/div&gt;" style="text;html=1;align=center;verticalAlign=middle;resizable=0;points=[];autosize=1;strokeColor=none;fillColor=none;fontColor=default;" vertex="1" parent="1">
                    <mxGeometry x="270" y="480" width="330" height="40" as="geometry"/>
                </mxCell>
                <mxCell id="32" value="" style="endArrow=classic;html=1;fontColor=#FFFFFF;jumpStyle=gap;dashed=1;dashPattern=12 12;" edge="1" parent="1">
                    <mxGeometry relative="1" as="geometry">
                        <mxPoint x="740" y="600" as="sourcePoint"/>
                        <mxPoint x="140" y="600" as="targetPoint"/>
                    </mxGeometry>
                </mxCell>
                <mxCell id="33" value="" style="edgeLabel;resizable=0;html=1;align=center;verticalAlign=middle;labelBackgroundColor=#17141d;strokeColor=default;fontColor=#FFFFFF;fillColor=none;" connectable="0" vertex="1" parent="32">
                    <mxGeometry relative="1" as="geometry"/>
                </mxCell>
                <mxCell id="34" value="" style="edgeLabel;resizable=0;html=1;align=left;verticalAlign=bottom;labelBackgroundColor=#17141d;strokeColor=default;fontColor=#FFFFFF;fillColor=none;" connectable="0" vertex="1" parent="32">
                    <mxGeometry x="-1" relative="1" as="geometry"/>
                </mxCell>
                <mxCell id="35" value="" style="edgeLabel;resizable=0;html=1;align=right;verticalAlign=bottom;labelBackgroundColor=#17141d;strokeColor=default;fontColor=#FFFFFF;fillColor=none;" connectable="0" vertex="1" parent="32">
                    <mxGeometry x="1" relative="1" as="geometry"/>
                </mxCell>
                <mxCell id="36" value="the css file&lt;br&gt;&amp;nbsp;" style="text;html=1;align=center;verticalAlign=middle;resizable=0;points=[];autosize=1;strokeColor=none;fillColor=none;fontColor=#FFFFFF;" vertex="1" parent="1">
                    <mxGeometry x="380" y="560" width="80" height="40" as="geometry"/>
                </mxCell>
                <mxCell id="37" value="" style="endArrow=classic;html=1;" edge="1" parent="1">
                    <mxGeometry width="50" height="50" relative="1" as="geometry">
                        <mxPoint x="140" y="680" as="sourcePoint"/>
                        <mxPoint x="740" y="680" as="targetPoint"/>
                    </mxGeometry>
                </mxCell>
                <mxCell id="38" value="&lt;div style=&quot;word-break: break-all; display: flex; align-items: center; gap: 2px;&quot; class=&quot;header-value&quot;&gt;&lt;font color=&quot;#ffffff&quot;&gt;GET https://studies.cs.helsinki.fi/exampleapp/main.js&lt;/font&gt;&lt;font color=&quot;#ffffff&quot;&gt;&lt;br&gt;&lt;/font&gt;&lt;/div&gt;&lt;div style=&quot;color: rgb(31, 31, 31);&quot;&gt;&lt;br style=&quot;font-family: system-ui, sans-serif; text-align: start;&quot;&gt;&lt;/div&gt;" style="text;html=1;align=center;verticalAlign=middle;resizable=0;points=[];autosize=1;strokeColor=none;fillColor=none;fontColor=#FFFFFF;" vertex="1" parent="1">
                    <mxGeometry x="255" y="645" width="310" height="40" as="geometry"/>
                </mxCell>
                <mxCell id="40" value="" style="endArrow=classic;html=1;fontColor=#FFFFFF;jumpStyle=gap;dashed=1;dashPattern=12 12;" edge="1" parent="1">
                    <mxGeometry relative="1" as="geometry">
                        <mxPoint x="730" y="760" as="sourcePoint"/>
                        <mxPoint x="140" y="760" as="targetPoint"/>
                    </mxGeometry>
                </mxCell>
                <mxCell id="41" value="" style="edgeLabel;resizable=0;html=1;align=center;verticalAlign=middle;labelBackgroundColor=#17141d;strokeColor=default;fontColor=#FFFFFF;fillColor=none;" connectable="0" vertex="1" parent="40">
                    <mxGeometry relative="1" as="geometry"/>
                </mxCell>
                <mxCell id="42" value="" style="edgeLabel;resizable=0;html=1;align=left;verticalAlign=bottom;labelBackgroundColor=#17141d;strokeColor=default;fontColor=#FFFFFF;fillColor=none;" connectable="0" vertex="1" parent="40">
                    <mxGeometry x="-1" relative="1" as="geometry"/>
                </mxCell>
                <mxCell id="43" value="" style="edgeLabel;resizable=0;html=1;align=right;verticalAlign=bottom;labelBackgroundColor=#17141d;strokeColor=default;fontColor=#FFFFFF;fillColor=none;" connectable="0" vertex="1" parent="40">
                    <mxGeometry x="1" relative="1" as="geometry"/>
                </mxCell>
                <mxCell id="44" value="the JavaScript fle&lt;br&gt;" style="text;html=1;align=center;verticalAlign=middle;resizable=0;points=[];autosize=1;strokeColor=none;fillColor=none;fontColor=#FFFFFF;" vertex="1" parent="1">
                    <mxGeometry x="370" y="720" width="120" height="30" as="geometry"/>
                </mxCell>
                <mxCell id="45" value="&lt;font color=&quot;#000000&quot;&gt;The browser starts executing the JavaScript code that fetches the JSON from the server&lt;br&gt;&lt;/font&gt;" style="rounded=1;whiteSpace=wrap;html=1;labelBackgroundColor=#FFE45E;strokeColor=default;fontColor=#FFFFFF;fillColor=none;arcSize=0;" vertex="1" parent="1">
                    <mxGeometry x="160" y="770" width="560" height="30" as="geometry"/>
                </mxCell>
                <mxCell id="46" value="&lt;br&gt;&lt;span style=&quot;font-family: system-ui, sans-serif; text-align: start;&quot;&gt;&lt;font style=&quot;&quot; color=&quot;#ffffff&quot;&gt;GET &lt;br&gt;https://studies.cs.helsinki.fi/exampleapp/data.json&lt;/font&gt;&lt;/span&gt;" style="text;html=1;align=center;verticalAlign=middle;resizable=0;points=[];autosize=1;strokeColor=none;fillColor=none;fontColor=#000000;" vertex="1" parent="1">
                    <mxGeometry x="265" y="820" width="290" height="60" as="geometry"/>
                </mxCell>
                <mxCell id="47" value="" style="endArrow=classic;html=1;" edge="1" parent="1">
                    <mxGeometry width="50" height="50" relative="1" as="geometry">
                        <mxPoint x="140" y="880" as="sourcePoint"/>
                        <mxPoint x="740" y="880" as="targetPoint"/>
                    </mxGeometry>
                </mxCell>
                <mxCell id="48" value="" style="endArrow=classic;html=1;fontColor=#FFFFFF;jumpStyle=gap;dashed=1;dashPattern=12 12;" edge="1" parent="1">
                    <mxGeometry relative="1" as="geometry">
                        <mxPoint x="740" y="1000" as="sourcePoint"/>
                        <mxPoint x="140" y="1000" as="targetPoint"/>
                    </mxGeometry>
                </mxCell>
                <mxCell id="49" value="" style="edgeLabel;resizable=0;html=1;align=center;verticalAlign=middle;labelBackgroundColor=#17141d;strokeColor=default;fontColor=#FFFFFF;fillColor=none;" connectable="0" vertex="1" parent="48">
                    <mxGeometry relative="1" as="geometry"/>
                </mxCell>
                <mxCell id="50" value="" style="edgeLabel;resizable=0;html=1;align=left;verticalAlign=bottom;labelBackgroundColor=#17141d;strokeColor=default;fontColor=#FFFFFF;fillColor=none;" connectable="0" vertex="1" parent="48">
                    <mxGeometry x="-1" relative="1" as="geometry"/>
                </mxCell>
                <mxCell id="51" value="" style="edgeLabel;resizable=0;html=1;align=right;verticalAlign=bottom;labelBackgroundColor=#17141d;strokeColor=default;fontColor=#FFFFFF;fillColor=none;" connectable="0" vertex="1" parent="48">
                    <mxGeometry x="1" relative="1" as="geometry"/>
                </mxCell>
                <mxCell id="52" value="[{&quot;content&quot;: &quot;HTML is easy&quot;, &quot;date&quot;: &quot;2023-1-1&quot;}]" style="text;html=1;align=center;verticalAlign=middle;resizable=0;points=[];autosize=1;strokeColor=none;fillColor=none;fontColor=#FFFFFF;" vertex="1" parent="1">
                    <mxGeometry x="275" y="950" width="280" height="30" as="geometry"/>
                </mxCell>
                <mxCell id="53" value="&lt;span style=&quot;color: rgb(0, 0, 0); background-color: rgb(255, 228, 94);&quot;&gt;The browser executes the callback function that renders the notes&lt;br&gt;&lt;br&gt;&lt;/span&gt;" style="text;html=1;align=center;verticalAlign=middle;resizable=0;points=[];autosize=1;strokeColor=none;fillColor=none;fontColor=#FFFFFF;" vertex="1" parent="1">
                    <mxGeometry x="225" y="1010" width="370" height="40" as="geometry"/>
                </mxCell>
                <mxCell id="54" value="&lt;font color=&quot;#000000&quot; style=&quot;background-color: rgb(255, 228, 94);&quot;&gt;At this step the Form Data are also submitted and the server side code which in this diagram is omitt&lt;br&gt;ed is responsible for pushing the new note in the array.&lt;br&gt;&amp;nbsp;&lt;/font&gt;" style="whiteSpace=wrap;html=1;labelBackgroundColor=none;strokeColor=default;fontColor=#FFFFFF;fillColor=none;" vertex="1" parent="1">
                    <mxGeometry x="740" y="170" width="870" height="60" as="geometry"/>
                </mxCell>
            </root>
        </mxGraphModel>
    </diagram>
</mxfile>